<svg width="64" height="79" viewBox="0 0 64 79" fill="none" xmlns="http://www.w3.org/2000/svg">
<path d="M26.627 72.3025C33.598 69.0441 38.4103 65.5396 40.076 64.2486C50.3791 56.4404 66.1112 39.9018 63.0265 26.3758L63.0237 26.3651C62.652 24.6978 61.7226 20.5299 58.0288 18.1373C55.329 16.3779 52.3665 16.3606 50.613 16.5459C50.0671 16.6036 49.5908 16.9196 49.2585 17.3551C45.9448 21.6995 40.6949 24.5314 34.8317 24.5314C31.4385 24.5314 28.2308 23.6092 25.5163 21.9491C24.4674 21.2729 23.4804 20.5351 22.5545 19.7358C21.951 19.1691 21.4283 18.6025 20.9878 18.0711C20.4553 17.4281 19.6116 17.0941 18.8037 17.3146C15.1289 18.318 10.4072 20.103 5.58868 23.4862C3.51977 24.9665 1.72483 26.4922 0.242516 27.9461C0.139246 28.0474 0.263603 28.2014 0.386544 28.125L0.418145 28.1063C1.00756 27.7536 1.16422 27.66 2.1899 27.2389C2.19341 27.2374 2.19764 27.236 2.20115 27.2347C2.24962 27.2188 2.60929 27.1005 3.18255 26.9292C15.5834 22.6254 32.1171 30.1262 35.8194 39.0411C40.0556 49.1737 30.3398 68.0039 7.31196 78.0611C7.12158 78.1443 7.19886 78.433 7.40329 78.3973C12.4635 77.5109 19.2126 75.7729 26.627 72.3025Z" fill="#F5006A"/>
<path d="M46.0358 65.7826C45.9409 65.7115 45.811 65.7136 45.7168 65.7858C44.0891 67.0398 42.2274 68.3459 40.0763 69.5368C37.2979 71.0918 33.3209 72.5306 30.683 73.4038C30.3774 73.5052 30.4884 74.0904 30.8094 74.075C34.029 73.9261 39.3366 73.8904 43.5313 74.8859C47.5911 75.8109 50.8881 77.2245 53.3694 78.5143C53.5618 78.6143 53.7873 78.4556 53.7494 78.2431C53.4565 76.5995 52.8179 74.305 51.4283 71.8119C49.6453 68.7915 47.4619 66.8551 46.0358 65.7826Z" fill="#FFC72E"/>
<path d="M26.8739 15.4934C28.6632 17.9526 31.5625 19.5512 34.8327 19.5512C38.2258 19.5512 41.1869 17.8912 42.9144 15.3089C44.0251 13.7104 44.6419 11.8045 44.6419 9.77559C44.7038 4.3652 40.2617 0 34.8327 0C29.4036 0 25.0234 4.3652 25.0234 9.77559C25.0234 11.9275 25.7021 13.8948 26.8739 15.4934Z" fill="#FFC72E"/>
<path d="M9.49748 70.6051C8.72822 71.2889 7.95827 71.9726 7.12438 72.6563C7.04711 72.7199 7.1314 72.9066 7.22695 72.8745C26.4296 64.8829 34.5738 49.3434 31.1189 41.0558C28.157 33.9027 14.897 27.8609 4.97468 31.2647C3.88859 31.6594 3.0308 32.1267 2.24117 32.5707C2.03814 32.7063 2.14002 33.0312 2.38449 33.0241C5.65752 32.9302 15.7681 33.176 20.1104 39.5758C22.6774 43.325 23.023 48.9981 20.9991 54.9672C19.1726 60.2951 15.3719 65.9188 9.49748 70.6051Z" fill="#FFC72E"/>
</svg>
