<svg width="1021" height="1019" viewBox="0 0 1021 1019" fill="none" xmlns="http://www.w3.org/2000/svg">
<g clip-path="url(#clip0_330_2435)">
<rect width="1021" height="1034" fill="#380478"/>
<path d="M43.5973 800.147C55.0192 798.515 477.628 503.105 312.827 437.821C148.026 372.537 -119.572 614.088 79.4946 589.607C278.561 565.125 378.097 230.545 451.523 140.779C524.949 51.014 743.596 108.137 631.01 165.261C518.423 222.384 368.307 328.471 334.041 140.779C299.776 -46.9118 376.465 18.3721 431.943 -107.299C487.42 -232.971 273.669 -148.102 270.405 -63.2328C267.142 21.6363 273.669 245.234 121.921 165.261C-29.8267 85.2881 -241.947 52.6461 -54.3021 -27.3267C133.343 -107.299 275.307 -38.7514 159.452 33.0609C43.5973 104.873 -37.978 357.849 2.80963 359.481C43.5973 361.113 665.278 222.384 655.487 437.821C645.697 653.258 317.727 481.888 415.628 410.076C513.53 338.263 645.697 434.557 831.71 410.076C1017.72 385.594 929.612 418.236 799.077 256.658C668.541 95.0807 763.179 8.57946 831.71 33.0609C900.242 57.5424 774.596 129.355 631.01 33.0609C516.14 -43.9741 792.006 -121.988 944.297 -151.366L1009.57 653.258C1005.76 614.088 968.773 552.068 851.291 617.352C733.809 682.636 864.344 788.179 944.297 832.789C1047.09 950.844 1183.5 1150.4 906.768 1004.16C560.849 821.365 779.501 681.004 546.164 725.071C312.827 769.137 425.423 979.678 252.459 816.468C79.4946 653.258 283.461 632.041 469.474 772.402C655.487 912.762 593.483 986.207 712.597 1022.11C831.71 1058.02 859.452 893.177 655.487 896.441C451.523 899.705 368.304 1085.76 121.921 991.103C-124.463 896.441 -139.143 811.572 -29.8243 860.535C79.4946 909.498 232.876 834.421 431.943 1004.16C631.01 1173.9 1195.58 1231.02 1278.79 1126.57C1362.01 1022.11 1249.42 798.515 906.768 694.061C564.112 589.606 425.421 472.095 528.215 468.831C631.01 465.567 702.807 666.315 546.164 641.834C389.521 617.352 262.249 539.012 92.5528 641.834C-43.2041 724.092 3.35039 781.65 43.5973 800.147Z" stroke="#6C37AC" stroke-opacity="0.13" stroke-width="41"/>
<path d="M-147.597 461.853C-159.019 463.485 -581.628 758.895 -416.827 824.179C-252.026 889.463 15.5722 647.912 -183.495 672.393C-382.561 696.875 -482.097 1031.46 -555.523 1121.22C-628.949 1210.99 -847.596 1153.86 -735.01 1096.74C-622.423 1039.62 -472.307 933.529 -438.041 1121.22C-403.776 1308.91 -480.465 1243.63 -535.943 1369.3C-591.42 1494.97 -377.669 1410.1 -374.405 1325.23C-371.142 1240.36 -377.668 1016.77 -225.921 1096.74C-74.1733 1176.71 137.947 1209.35 -49.6979 1289.33C-237.343 1369.3 -379.307 1300.75 -263.452 1228.94C-147.597 1157.13 -66.0219 904.151 -106.81 902.519C-147.597 900.887 -769.278 1039.62 -759.487 824.179C-749.697 608.741 -421.727 780.112 -519.628 851.924C-617.53 923.737 -749.697 827.443 -935.71 851.924C-1121.72 876.406 -1033.61 843.764 -903.076 1005.34C-772.541 1166.92 -867.179 1253.42 -935.71 1228.94C-1004.24 1204.46 -878.596 1132.65 -735.01 1228.94C-620.14 1305.97 -896.006 1383.99 -1048.3 1413.37L-1113.57 608.741C-1109.76 647.912 -1072.77 709.932 -955.291 644.648C-837.809 579.364 -968.344 473.821 -1048.3 429.211C-1151.09 311.155 -1287.5 111.604 -1010.77 257.84C-664.849 440.635 -883.501 580.996 -650.164 536.929C-416.827 492.863 -529.423 282.322 -356.459 445.532C-183.495 608.742 -387.461 629.959 -573.474 489.598C-759.487 349.238 -697.483 275.793 -816.597 239.887C-935.71 203.981 -963.452 368.823 -759.487 365.559C-555.523 362.295 -472.304 176.235 -225.921 270.897C20.4626 365.559 35.1432 450.428 -74.1756 401.465C-183.494 352.502 -336.876 427.579 -535.943 257.84C-735.009 88.102 -1299.58 30.9785 -1382.79 135.433C-1466.01 239.887 -1353.42 463.485 -1010.77 567.939C-668.112 672.393 -529.421 789.904 -632.215 793.169C-735.01 796.433 -806.806 595.685 -650.164 620.166C-493.521 644.648 -366.249 722.988 -196.553 620.166C-60.7958 537.908 -107.35 480.35 -147.597 461.853Z" stroke="#6C37AC" stroke-opacity="0.13" stroke-width="41"/>
<path d="M138.249 902.602L129.101 920.365C128.51 921.513 129.131 922.918 130.333 923.393C149.656 931.031 183.314 973.746 202.884 942.676C203.112 942.314 203.224 941.85 203.177 941.425C199.649 909.711 153.9 906.561 141.869 901.534C140.61 901.008 138.874 901.388 138.249 902.602Z" fill="#6925BD"/>
<path d="M129.523 894.921C95.3323 874.26 85.0861 894.457 118.394 916.32C119.381 916.968 120.729 916.611 121.258 915.555L130.284 897.514C130.745 896.593 130.404 895.453 129.523 894.921Z" fill="#6925BD"/>
<path d="M357.46 938.942L374.574 949.254C375.68 949.92 377.123 949.394 377.677 948.227C386.587 929.456 431.45 898.72 401.754 877.122C401.408 876.871 400.952 876.728 400.525 876.747C368.646 878.153 362.453 923.59 356.636 935.258C356.027 936.48 356.29 938.237 357.46 938.942Z" fill="#6925BD"/>
<path d="M349.214 947.137C326.32 979.874 345.789 991.444 369.824 959.668C370.536 958.726 370.27 957.357 369.251 956.759L351.852 946.55C350.964 946.029 349.804 946.293 349.214 947.137Z" fill="#6925BD"/>
<path d="M75.8683 856.821L71.922 837.235C71.6668 835.968 72.6482 834.786 73.9338 834.658C94.6083 832.589 138.657 800.696 148.993 835.931C149.114 836.341 149.094 836.818 148.933 837.214C136.874 866.758 92.0051 857.289 79.0596 858.837C77.704 858.999 76.138 858.16 75.8683 856.821Z" fill="#6925BD"/>
<path d="M65.3757 861.826C26.8412 872.36 22.5029 850.131 60.5163 838.2C61.6429 837.847 62.8427 838.558 63.0624 839.719L66.8164 859.539C67.008 860.551 66.3692 861.554 65.3757 861.826Z" fill="#6925BD"/>
<path d="M327.262 870.18L308.081 875.777C306.841 876.139 305.58 875.261 305.343 873.991C301.525 853.567 266.005 812.388 300.234 799.095C300.632 798.94 301.109 798.919 301.518 799.046C331.979 808.551 326.357 854.062 328.999 866.829C329.276 868.166 328.572 869.798 327.262 870.18Z" fill="#6925BD"/>
<path d="M333.14 880.21C346.909 917.71 325.13 923.921 310.012 887.059C309.564 885.967 310.172 884.711 311.309 884.393L330.739 878.969C331.731 878.692 332.785 879.243 333.14 880.21Z" fill="#6925BD"/>
<path d="M215.626 899.09C215.358 898.607 215.533 897.999 216.016 897.731C216.499 897.463 217.107 897.638 217.375 898.121L215.626 899.09ZM292.37 919.308C292.875 919.53 293.105 920.12 292.882 920.626L289.257 928.864C289.035 929.369 288.445 929.599 287.939 929.376C287.434 929.154 287.204 928.564 287.427 928.058L290.649 920.736L283.326 917.514C282.821 917.291 282.591 916.701 282.814 916.196C283.036 915.69 283.626 915.461 284.132 915.683L292.37 919.308ZM217.375 898.121C217.704 898.713 218.035 899.295 218.368 899.865L216.641 900.874C216.3 900.291 215.962 899.696 215.626 899.09L217.375 898.121ZM220.444 903.231C221.182 904.364 221.93 905.447 222.686 906.481L221.072 907.662C220.293 906.598 219.525 905.485 218.768 904.322L220.444 903.231ZM225.107 909.591C225.966 910.628 226.836 911.608 227.714 912.532L226.263 913.91C225.354 912.951 224.454 911.938 223.567 910.868L225.107 909.591ZM230.514 915.273C231.511 916.177 232.518 917.017 233.532 917.796L232.314 919.382C231.256 918.57 230.207 917.695 229.171 916.755L230.514 915.273ZM236.738 920.042C237.86 920.756 238.989 921.402 240.125 921.984L239.212 923.764C238.021 923.153 236.838 922.476 235.665 921.73L236.738 920.042ZM243.688 923.601C244.914 924.088 246.145 924.508 247.38 924.866L246.823 926.787C245.528 926.411 244.236 925.97 242.95 925.46L243.688 923.601ZM251.186 925.78C252.475 926.027 253.767 926.213 255.059 926.345L254.856 928.334C253.509 928.197 252.159 928.003 250.809 927.744L251.186 925.78ZM258.975 926.58C260.289 926.606 261.6 926.581 262.905 926.511L263.013 928.508C261.661 928.581 260.301 928.607 258.935 928.58L258.975 926.58ZM266.828 926.166C268.139 926.008 269.441 925.81 270.732 925.578L271.086 927.546C269.76 927.785 268.419 927.989 267.067 928.152L266.828 926.166ZM274.603 924.776C275.898 924.474 277.178 924.143 278.44 923.79L278.979 925.716C277.691 926.076 276.383 926.415 275.057 926.724L274.603 924.776ZM282.243 922.648C283.523 922.238 284.78 921.812 286.009 921.377L286.676 923.263C285.43 923.703 284.154 924.136 282.852 924.553L282.243 922.648ZM289.745 920.006C290.374 919.767 290.994 919.529 291.604 919.291L292.329 921.155C291.714 921.394 291.089 921.635 290.454 921.876L289.745 920.006ZM214.751 899.575C214.216 898.609 214.565 897.392 215.531 896.856C216.497 896.321 217.714 896.67 218.25 897.636L214.751 899.575ZM292.772 918.393C293.783 918.838 294.242 920.018 293.797 921.029L286.548 937.504C286.103 938.515 284.923 938.974 283.912 938.529C282.901 938.084 282.442 936.904 282.886 935.893L289.331 921.248L274.686 914.804C273.675 914.359 273.216 913.179 273.661 912.168C274.106 911.157 275.286 910.698 276.297 911.143L292.772 918.393ZM218.25 897.636C218.575 898.222 218.902 898.797 219.231 899.36L215.778 901.378C215.433 900.788 215.091 900.187 214.751 899.575L218.25 897.636ZM221.282 902.685C222.01 903.803 222.748 904.871 223.493 905.891L220.265 908.252C219.475 907.173 218.697 906.045 217.93 904.868L221.282 902.685ZM225.876 908.953C226.722 909.973 227.577 910.936 228.439 911.844L225.538 914.598C224.613 913.623 223.698 912.593 222.797 911.506L225.876 908.953ZM231.186 914.532C232.163 915.419 233.149 916.241 234.141 917.003L231.705 920.175C230.625 919.346 229.555 918.454 228.499 917.495L231.186 914.532ZM237.275 919.199C238.37 919.896 239.473 920.526 240.581 921.094L238.756 924.653C237.538 924.029 236.328 923.337 235.128 922.574L237.275 919.199ZM244.057 922.672C245.253 923.146 246.454 923.556 247.659 923.906L246.544 927.747C245.219 927.363 243.897 926.912 242.581 926.389L244.057 922.672ZM251.374 924.798C252.634 925.039 253.896 925.221 255.16 925.35L254.755 929.329C253.38 929.189 252.001 928.99 250.621 928.726L251.374 924.798ZM258.995 925.58C260.283 925.606 261.569 925.581 262.851 925.512L263.067 929.506C261.692 929.581 260.307 929.607 258.915 929.579L258.995 925.58ZM266.708 925.174C267.998 925.018 269.281 924.823 270.554 924.593L271.263 928.53C269.919 928.772 268.559 928.979 267.187 929.145L266.708 925.174ZM274.376 923.802C275.656 923.504 276.922 923.177 278.17 922.827L279.248 926.679C277.948 927.043 276.626 927.385 275.284 927.698L274.376 923.802ZM281.938 921.696C283.208 921.289 284.455 920.866 285.676 920.435L287.009 924.206C285.755 924.649 284.47 925.085 283.157 925.505L281.938 921.696ZM289.39 919.071C290.016 918.833 290.634 918.596 291.242 918.359L292.692 922.087C292.075 922.327 291.447 922.569 290.809 922.811L289.39 919.071Z" fill="#F5006A"/>
<path d="M407.437 860.994C407.17 861.477 407.344 862.085 407.827 862.353C408.31 862.621 408.919 862.446 409.187 861.963L407.437 860.994ZM484.181 840.776C484.687 840.554 484.916 839.963 484.694 839.458L481.069 831.22C480.846 830.715 480.256 830.485 479.751 830.708C479.245 830.93 479.016 831.52 479.238 832.026L482.46 839.348L475.138 842.57C474.632 842.793 474.403 843.383 474.625 843.888C474.848 844.394 475.438 844.623 475.943 844.401L484.181 840.776ZM409.187 861.963C409.515 861.371 409.846 860.789 410.179 860.219L408.452 859.21C408.112 859.793 407.773 860.388 407.437 860.994L409.187 861.963ZM412.255 856.853C412.993 855.72 413.741 854.637 414.498 853.603L412.884 852.422C412.105 853.486 411.337 854.599 410.579 855.762L412.255 856.853ZM416.918 850.493C417.778 849.456 418.647 848.476 419.525 847.552L418.075 846.174C417.165 847.133 416.266 848.146 415.378 849.216L416.918 850.493ZM422.326 844.811C423.323 843.907 424.329 843.067 425.344 842.288L424.126 840.702C423.067 841.514 422.019 842.389 420.982 843.329L422.326 844.811ZM428.55 840.042C429.671 839.328 430.801 838.682 431.937 838.1L431.024 836.32C429.833 836.931 428.65 837.608 427.476 838.354L428.55 840.042ZM435.5 836.483C436.725 835.996 437.957 835.576 439.192 835.218L438.634 833.297C437.339 833.673 436.047 834.113 434.761 834.624L435.5 836.483ZM442.997 834.304C444.287 834.057 445.579 833.871 446.87 833.739L446.668 831.75C445.32 831.887 443.97 832.081 442.621 832.34L442.997 834.304ZM450.787 833.504C452.1 833.478 453.411 833.503 454.716 833.573L454.824 831.576C453.472 831.503 452.112 831.477 450.747 831.504L450.787 833.504ZM458.639 833.918C459.95 834.076 461.252 834.274 462.543 834.506L462.897 832.538C461.571 832.299 460.23 832.095 458.878 831.932L458.639 833.918ZM466.415 835.308C467.71 835.61 468.99 835.941 470.251 836.294L470.79 834.368C469.503 834.008 468.195 833.669 466.869 833.36L466.415 835.308ZM474.054 837.436C475.335 837.846 476.591 838.272 477.821 838.707L478.487 836.821C477.242 836.381 475.966 835.948 474.664 835.531L474.054 837.436ZM481.556 840.078C482.185 840.317 482.805 840.555 483.416 840.793L484.141 838.929C483.526 838.69 482.901 838.449 482.266 838.208L481.556 840.078ZM406.563 860.509C406.027 861.475 406.376 862.692 407.342 863.228C408.308 863.763 409.526 863.414 410.061 862.448L406.563 860.509ZM484.584 841.691C485.595 841.246 486.054 840.066 485.609 839.055L478.359 822.58C477.914 821.569 476.734 821.11 475.723 821.555C474.712 822 474.253 823.18 474.698 824.191L481.142 838.836L466.497 845.28C465.486 845.725 465.027 846.905 465.472 847.916C465.917 848.927 467.097 849.386 468.108 848.941L484.584 841.691ZM410.061 862.448C410.386 861.862 410.713 861.287 411.043 860.724L407.589 858.706C407.244 859.296 406.902 859.897 406.563 860.509L410.061 862.448ZM413.093 857.399C413.822 856.28 414.559 855.213 415.305 854.193L412.076 851.832C411.287 852.911 410.508 854.038 409.741 855.216L413.093 857.399ZM417.688 851.131C418.534 850.111 419.388 849.148 420.25 848.24L417.35 845.486C416.424 846.461 415.51 847.491 414.608 848.578L417.688 851.131ZM422.998 845.551C423.975 844.665 424.96 843.843 425.952 843.081L423.517 839.908C422.436 840.738 421.367 841.63 420.31 842.589L422.998 845.551ZM429.087 840.885C430.182 840.188 431.285 839.558 432.393 838.99L430.568 835.431C429.349 836.055 428.139 836.747 426.94 837.51L429.087 840.885ZM435.869 837.412C437.064 836.938 438.265 836.528 439.47 836.178L438.355 832.337C437.03 832.721 435.709 833.172 434.392 833.695L435.869 837.412ZM443.185 835.286C444.445 835.045 445.708 834.863 446.972 834.734L446.567 830.755C445.191 830.895 443.812 831.094 442.433 831.358L443.185 835.286ZM450.806 834.504C452.094 834.478 453.38 834.503 454.663 834.572L454.878 830.578C453.503 830.503 452.118 830.477 450.727 830.504L450.806 834.504ZM458.52 834.91C459.81 835.066 461.093 835.261 462.366 835.491L463.075 831.554C461.731 831.312 460.371 831.105 458.998 830.939L458.52 834.91ZM466.188 836.282C467.467 836.58 468.733 836.907 469.982 837.257L471.06 833.405C469.759 833.041 468.437 832.699 467.096 832.386L466.188 836.282ZM473.749 838.388C475.019 838.795 476.266 839.218 477.487 839.649L478.821 835.878C477.567 835.435 476.281 834.999 474.969 834.579L473.749 838.388ZM481.202 841.013C481.828 841.251 482.445 841.488 483.054 841.725L484.503 837.997C483.886 837.757 483.258 837.515 482.62 837.273L481.202 841.013Z" fill="#F5006A"/>
<path d="M594.268 905.666L583.269 922.346C582.558 923.425 583.025 924.888 584.169 925.489C602.562 935.154 631.449 981.23 654.236 952.436C654.502 952.101 654.663 951.651 654.661 951.224C654.552 919.314 609.404 911.279 597.982 904.993C596.786 904.335 595.019 904.526 594.268 905.666Z" fill="#6925BD"/>
<path d="M586.415 897.094C554.636 872.888 542.284 891.871 573.057 917.177C573.969 917.927 575.348 917.717 575.986 916.724L586.894 899.754C587.451 898.887 587.234 897.718 586.415 897.094Z" fill="#6925BD"/>
<path d="M831.993 826.123L838.574 844.988C839 846.208 840.446 846.725 841.618 846.181C860.463 837.43 914.614 842.439 905.562 806.853C905.457 806.438 905.197 806.038 904.856 805.779C879.431 786.498 845.642 817.501 833.713 822.763C832.464 823.314 831.544 824.834 831.993 826.123Z" fill="#6925BD"/>
<path d="M820.415 827.161C781.888 837.724 789.478 859.063 828.267 849.967C829.417 849.697 830.087 848.474 829.685 847.364L822.819 828.395C822.469 827.426 821.408 826.889 820.415 827.161Z" fill="#6925BD"/>
<path d="M583.675 831.577L579.729 811.991C579.473 810.724 580.455 809.542 581.74 809.414C602.415 807.345 646.463 775.452 656.8 810.687C656.92 811.097 656.901 811.574 656.739 811.97C644.681 841.514 599.812 832.045 586.866 833.593C585.511 833.755 583.945 832.916 583.675 831.577Z" fill="#6925BD"/>
<path d="M573.182 836.582C534.648 847.115 530.31 824.887 568.323 812.956C569.45 812.603 570.649 813.314 570.869 814.474L574.623 834.295C574.815 835.307 574.176 836.31 573.182 836.582Z" fill="#6925BD"/>
<path d="M797.965 792.321L780.621 782.402C779.5 781.761 779.256 780.244 780.005 779.191C792.055 762.264 797.032 708.11 830.363 723.517C830.752 723.696 831.098 724.025 831.29 724.407C845.597 752.93 808.938 780.48 801.583 791.245C800.813 792.373 799.15 792.999 797.965 792.321Z" fill="#6925BD"/>
<path d="M794.827 803.515C777.397 839.46 757.807 828.097 773.842 791.625C774.317 790.544 775.643 790.109 776.661 790.707L794.054 800.925C794.942 801.447 795.277 802.588 794.827 803.515Z" fill="#6925BD"/>
<path d="M687.037 860.907C686.604 860.563 686.531 859.934 686.874 859.502C687.218 859.069 687.847 858.996 688.279 859.339L687.037 860.907ZM765.66 850.099C766.212 850.11 766.65 850.567 766.639 851.119L766.456 860.117C766.445 860.669 765.988 861.108 765.436 861.097C764.884 861.085 764.445 860.629 764.456 860.076L764.619 852.078L756.621 851.915C756.069 851.904 755.63 851.447 755.641 850.895C755.653 850.343 756.109 849.905 756.661 849.916L765.66 850.099ZM688.279 859.339C688.81 859.76 689.339 860.17 689.866 860.569L688.659 862.163C688.12 861.756 687.579 861.337 687.037 860.907L688.279 859.339ZM693.075 862.879C694.192 863.642 695.298 864.354 696.394 865.019L695.357 866.729C694.23 866.045 693.093 865.313 691.947 864.531L693.075 862.879ZM699.823 866.961C701.015 867.588 702.194 868.159 703.36 868.675L702.55 870.504C701.342 869.968 700.123 869.378 698.892 868.731L699.823 866.961ZM706.999 870.13C708.266 870.582 709.518 870.971 710.754 871.3L710.238 873.233C708.949 872.889 707.645 872.484 706.327 872.014L706.999 870.13ZM714.577 872.143C715.886 872.371 717.177 872.534 718.45 872.635L718.29 874.629C716.956 874.522 715.604 874.352 714.234 874.113L714.577 872.143ZM722.36 872.76C723.679 872.738 724.977 872.653 726.255 872.51L726.478 874.497C725.138 874.648 723.776 874.737 722.393 874.759L722.36 872.76ZM730.12 871.892C731.406 871.624 732.67 871.3 733.913 870.926L734.49 872.841C733.193 873.232 731.872 873.57 730.527 873.85L730.12 871.892ZM737.619 869.639C738.842 869.159 740.043 868.632 741.221 868.066L742.088 869.868C740.867 870.455 739.622 871.001 738.35 871.501L737.619 869.639ZM744.711 866.241C745.86 865.592 746.986 864.909 748.089 864.198L749.172 865.879C748.039 866.609 746.88 867.313 745.694 867.983L744.711 866.241ZM751.356 861.971C752.436 861.195 753.49 860.398 754.52 859.587L755.757 861.159C754.707 861.986 753.629 862.8 752.523 863.595L751.356 861.971ZM757.592 857.072C758.617 856.202 759.614 855.326 760.582 854.452L761.921 855.937C760.94 856.823 759.929 857.712 758.887 858.597L757.592 857.072ZM763.504 851.751C763.993 851.29 764.474 850.831 764.947 850.377L766.332 851.82C765.856 852.277 765.371 852.739 764.877 853.206L763.504 851.751ZM686.415 861.69C685.55 861.004 685.405 859.746 686.091 858.88C686.777 858.015 688.035 857.87 688.901 858.556L686.415 861.69ZM765.68 849.099C766.784 849.122 767.661 850.035 767.639 851.139L767.273 869.136C767.25 870.24 766.337 871.117 765.232 871.095C764.128 871.072 763.251 870.159 763.274 869.054L763.599 853.058L747.602 852.732C746.498 852.71 745.621 851.796 745.643 850.692C745.666 849.588 746.579 848.71 747.684 848.733L765.68 849.099ZM688.901 858.556C689.426 858.972 689.949 859.377 690.469 859.771L688.056 862.961C687.511 862.548 686.964 862.125 686.415 861.69L688.901 858.556ZM693.639 862.053C694.742 862.806 695.833 863.509 696.912 864.164L694.839 867.584C693.695 866.891 692.543 866.149 691.383 865.356L693.639 862.053ZM700.289 866.076C701.462 866.693 702.62 867.254 703.765 867.761L702.145 871.418C700.916 870.873 699.676 870.273 698.426 869.616L700.289 866.076ZM707.335 869.188C708.577 869.631 709.803 870.012 711.011 870.334L709.981 874.199C708.665 873.848 707.335 873.435 705.991 872.956L707.335 869.188ZM714.749 871.158C716.027 871.381 717.288 871.539 718.529 871.638L718.211 875.626C716.846 875.517 715.463 875.343 714.062 875.099L714.749 871.158ZM722.344 871.76C723.63 871.739 724.897 871.656 726.144 871.516L726.59 875.491C725.219 875.645 723.825 875.736 722.409 875.759L722.344 871.76ZM729.916 870.912C731.172 870.652 732.408 870.335 733.624 869.968L734.779 873.798C733.455 874.197 732.105 874.543 730.73 874.829L729.916 870.912ZM737.254 868.708C738.452 868.237 739.63 867.721 740.788 867.164L742.521 870.769C741.28 871.366 740.011 871.923 738.716 872.431L737.254 868.708ZM744.219 865.37C745.35 864.731 746.46 864.058 747.547 863.358L749.714 866.72C748.566 867.46 747.39 868.173 746.186 868.853L744.219 865.37ZM750.772 861.159C751.839 860.392 752.882 859.604 753.901 858.802L756.375 861.944C755.315 862.78 754.225 863.603 753.107 864.407L750.772 861.159ZM756.945 856.31C757.961 855.447 758.95 854.578 759.912 853.71L762.591 856.68C761.604 857.571 760.584 858.467 759.534 859.359L756.945 856.31ZM762.817 851.024C763.304 850.565 763.783 850.108 764.254 849.656L767.024 852.541C766.547 853 766.06 853.464 765.564 853.933L762.817 851.024Z" fill="#F5006A"/>
<path d="M262.706 544.038L262.579 545.059L263.39 545.692C269.063 550.12 277.548 550.602 285.396 548.852C293.285 547.092 301.094 542.961 305.622 537.421L306.179 536.74L305.989 535.882C298.533 502.121 299.998 480.792 305.887 441.5C322.223 431.202 332.44 413.713 338.421 394.318C344.494 374.622 346.265 352.757 345.556 333.896C344.849 315.104 341.668 299.003 337.624 290.932C336.611 288.91 335.462 287.222 334.148 286.146C332.773 285.019 331.046 284.455 329.232 285.173C327.603 285.818 326.322 287.353 325.275 289.298C324.199 291.295 323.215 294.013 322.323 297.473C318.089 313.906 317.073 332.497 316.127 349.819C315.831 355.228 315.542 360.514 315.164 365.572C314.364 376.279 313.172 385.96 310.744 393.839C308.732 400.366 305.922 405.494 301.93 408.959L298.093 307.212C298.088 294.985 295.385 284.784 291.248 277.284C287.13 269.821 281.473 264.848 275.487 263.531C269.32 262.174 263.316 264.802 259.013 271.43C254.771 277.964 252.101 288.436 252.101 303.252V303.287L252.102 303.322L257.319 438.429C253.68 437.97 250.66 436.637 248.096 434.584C245.057 432.15 242.572 428.633 240.506 424.137C236.352 415.097 234.074 402.522 232.187 388.082C231.558 383.274 230.974 378.26 230.374 373.125C229.189 362.96 227.948 352.321 226.205 341.865C223.575 326.095 219.773 310.508 213.178 297.124C211.173 293.053 209.322 290.031 207.612 288.018C205.99 286.11 204.107 284.653 202.012 284.788C199.773 284.932 198.401 286.775 197.572 288.669C196.7 290.66 196.107 293.391 195.728 296.631C194.211 309.597 195.901 332.914 200.537 358.537C205.18 384.198 212.817 412.396 223.321 435.142C228.572 446.514 234.57 456.59 241.319 464.313C247.724 471.642 254.892 476.949 262.83 479.132C265.374 504.253 265.868 518.638 262.706 544.038Z" fill="#6925BD" stroke="#3B077B" stroke-width="3.62806"/>
<path d="M809.587 634.109C816.299 629.678 824.043 622.869 833.117 613.595C836.919 620.723 841.879 625.714 847.55 628.583C854.363 632.03 861.87 632.24 868.923 629.844C882.466 625.242 894.259 611.16 897.999 591.612C908.748 588.397 918.135 585.294 925.583 581.803C933.417 578.132 939.652 573.791 942.886 567.907C946.248 561.791 945.995 554.743 942.501 546.652C939.381 539.427 933.563 531.066 924.887 521.17C936.416 515.012 945.327 509.292 951.591 503.703C958.509 497.532 962.617 491.143 962.931 484.13C963.243 477.129 959.728 470.47 953.687 463.859C947.892 457.518 939.414 450.828 928.571 443.455C928.729 433.142 928.572 424.233 927.774 416.772C926.934 408.921 925.356 402.358 922.449 397.372C919.45 392.226 915.099 388.877 909.175 387.485C903.952 386.258 897.688 386.593 890.295 388.178C882.878 377.63 876.226 368.668 870.166 361.94C863.864 354.943 857.744 349.821 851.614 348.277C848.415 347.472 845.23 347.644 842.159 348.973C839.149 350.275 836.47 352.591 834.034 355.707C829.726 361.216 825.782 369.744 821.925 381.46C810.678 374.112 800.687 371.723 790.272 375.588C779.691 379.515 769.352 389.73 756.877 405.26C746.358 400.994 737.616 399.014 730.39 399.338C722.446 399.695 716.403 402.844 712.119 408.459C707.968 413.899 705.667 421.391 704.422 430.143C703.226 438.54 702.96 448.433 703.166 459.426C690.756 470.047 681.822 479.203 676.32 487.331C670.64 495.723 668.304 503.5 670.225 510.858C672.12 518.114 677.922 524.012 686.211 529.262C693.924 534.148 704.251 538.759 716.828 543.513C712.166 556.48 708.655 567.681 706.936 576.966C705.106 586.846 705.147 595.322 708.809 601.483C712.649 607.944 719.798 610.853 729.552 611.144C738.656 611.416 750.68 609.452 766.043 605.379C768.714 614.582 771.502 622.253 774.78 628.011C778.426 634.415 783.011 639.024 789.261 640.211C795.399 641.376 802.125 639.033 809.587 634.109Z" fill="#6925BD" stroke="#3B077B" stroke-width="6.65145"/>
<path d="M839.592 521.578C852.553 489.282 855.864 474.61 815.443 488.701C796.441 470.258 790.403 469.251 799.952 508.416C799.001 508.711 798.094 509.005 797.23 509.299M839.592 521.578C835.271 527.716 830.305 522.446 818.59 532.439C814.753 535.712 811.788 536.668 809.236 536.559M839.592 521.578C845.886 522.444 855.793 522.682 866.73 520.983M839.592 521.578L866.73 520.983M809.236 536.559C803.996 536.335 801.209 536.878 794.777 533.257C780.132 520.426 780.673 514.929 797.23 509.299M809.236 536.559C805.696 540.803 795.561 549.671 783.336 551.188M783.336 551.188C768.055 553.083 738.569 548.339 736.192 542.941C733.815 537.543 748.116 515.127 744.389 510.323C740.661 505.518 718.358 502.448 715.981 497.049C713.603 491.649 739.36 491.587 740.437 483.054C741.515 474.522 722.233 463.675 733.192 455.625C744.151 447.576 775.855 461.01 778.986 464.466M783.336 551.188C768.212 549.783 782.375 570.958 777.843 582.623C773.311 594.288 790.375 596.444 801.447 599.625C812.519 602.807 827.205 599.562 832.491 585.953C836.719 575.066 845.477 567.873 849.327 565.638C862.141 565.132 877.991 576.098 892.795 554.552C899.771 544.399 879.323 528.841 866.73 520.983M778.986 464.466C782.118 467.921 789.269 509.268 797.23 509.299M778.986 464.466C775.902 446.485 774.854 411.17 795.331 413.755C820.928 416.986 830.649 420.763 824.557 450.842C818.465 480.922 845.498 414.223 868.073 425.231C890.648 436.239 860.15 465.79 858.639 469.677C857.128 473.564 890.551 465.291 902.699 459.941C914.846 454.591 937.1 472.187 910.65 499.951C898.447 512.761 881.632 518.669 866.73 520.983" stroke="#400C80" stroke-width="7.86081"/>
<path d="M380.069 396.065H402.676L374.75 506.936H344.498L316.406 396.065H339.179L359.624 477.015L380.069 396.065ZM411.854 506.936V423.824H433.796V506.936H411.854ZM422.825 418.006C416.675 418.006 411.854 413.186 411.854 407.035C411.854 400.885 416.675 396.065 422.825 396.065C428.975 396.065 433.796 400.885 433.796 407.035C433.796 413.186 428.975 418.006 422.825 418.006ZM495.757 423.824H518.862L493.263 506.936H466.668L441.236 423.824H464.341L479.966 475.187L495.757 423.824ZM606.903 484.828H610.56V506.936H596.929C591.943 506.936 587.455 504.442 584.795 500.619C578.146 504.941 570.334 507.6 561.856 507.6C538.585 507.6 519.802 488.651 519.802 465.38C519.802 442.109 538.585 423.325 561.856 423.325C569.17 423.325 575.985 425.154 581.969 428.312L604.077 423.824V482.002C604.077 483.498 605.241 484.828 606.903 484.828ZM561.856 485.493C572.993 485.493 581.969 476.517 581.969 465.38C581.969 454.243 572.993 445.267 561.856 445.267C550.886 445.267 541.743 454.243 541.743 465.38C541.743 476.517 550.886 485.493 561.856 485.493Z" fill="#FFC72E"/>
<mask id="path-18-outside-1_330_2435" maskUnits="userSpaceOnUse" x="606.064" y="412.389" width="112" height="111" fill="black">
<rect fill="white" x="606.064" y="412.389" width="112" height="111"/>
<path d="M662.427 510.054C639.156 510.054 620.207 491.104 620.207 467.833C620.207 444.562 639.156 425.778 662.427 425.778C685.699 425.778 704.482 444.562 704.482 467.833C704.482 491.104 685.699 510.054 662.427 510.054ZM662.427 447.72C651.29 447.72 642.314 456.696 642.314 467.833C642.314 478.97 651.29 487.946 662.427 487.946C673.398 487.946 682.54 478.97 682.54 467.833C682.54 456.696 673.398 447.72 662.427 447.72Z"/>
</mask>
<path d="M662.427 510.054C639.156 510.054 620.207 491.104 620.207 467.833C620.207 444.562 639.156 425.778 662.427 425.778C685.699 425.778 704.482 444.562 704.482 467.833C704.482 491.104 685.699 510.054 662.427 510.054ZM662.427 447.72C651.29 447.72 642.314 456.696 642.314 467.833C642.314 478.97 651.29 487.946 662.427 487.946C673.398 487.946 682.54 478.97 682.54 467.833C682.54 456.696 673.398 447.72 662.427 447.72Z" fill="white"/>
<path d="M662.427 496.849C646.449 496.849 633.412 483.811 633.412 467.833H607.002C607.002 498.397 631.863 523.258 662.427 523.258V496.849ZM633.412 467.833C633.412 451.922 646.381 438.983 662.427 438.983V412.574C631.931 412.574 607.002 437.201 607.002 467.833H633.412ZM662.427 438.983C678.406 438.983 691.277 451.854 691.277 467.833H717.687C717.687 437.269 692.991 412.574 662.427 412.574V438.983ZM691.277 467.833C691.277 483.879 678.338 496.849 662.427 496.849V523.258C693.059 523.258 717.687 498.329 717.687 467.833H691.277ZM662.427 434.515C643.998 434.515 629.11 449.403 629.11 467.833H655.519C655.519 463.989 658.583 460.925 662.427 460.925V434.515ZM629.11 467.833C629.11 486.263 643.998 501.151 662.427 501.151V474.741C658.583 474.741 655.519 471.677 655.519 467.833H629.11ZM662.427 501.151C680.62 501.151 695.745 486.333 695.745 467.833H669.336C669.336 471.606 666.176 474.741 662.427 474.741V501.151ZM695.745 467.833C695.745 449.332 680.62 434.515 662.427 434.515V460.925C666.176 460.925 669.336 464.06 669.336 467.833H695.745Z" fill="#380478" mask="url(#path-18-outside-1_330_2435)"/>
<mask id="path-20-outside-2_330_2435" maskUnits="userSpaceOnUse" x="243.047" y="458.426" width="537" height="229" fill="black">
<rect fill="white" x="243.047" y="458.426" width="537" height="229"/>
<path d="M338.579 527.728H314.374C309.079 527.728 304.793 532.267 304.793 537.562V543.361H334.04L330.258 576.894H304.793V669.426H271.26V576.894H259.914V543.361H271.26V535.04C271.26 516.383 286.388 501.255 305.045 501.255H338.579V527.728ZM398.806 670.434C363.508 670.434 334.765 641.691 334.765 606.393C334.765 571.095 363.508 542.604 398.806 542.604C434.105 542.604 462.595 571.095 462.595 606.393C462.595 641.691 434.105 670.434 398.806 670.434ZM398.806 575.885C381.914 575.885 368.299 589.5 368.299 606.393C368.299 623.286 381.914 636.901 398.806 636.901C415.447 636.901 429.314 623.286 429.314 606.393C429.314 589.5 415.447 575.885 398.806 575.885ZM533.324 542.604C538.114 542.604 542.905 543.108 547.443 544.369L544.67 578.911C541.392 576.894 537.358 575.885 533.324 575.885C520.213 575.885 509.624 586.475 509.624 599.586V669.426H476.342V543.361L509.624 547.647C516.935 544.369 525.004 542.604 533.324 542.604ZM618.27 542.604C623.061 542.604 627.851 543.108 632.389 544.369L629.616 578.911C626.338 576.894 622.304 575.885 618.27 575.885C605.159 575.885 594.57 586.475 594.57 599.586V669.426H561.289V543.361L594.57 547.647C601.882 544.369 609.95 542.604 618.27 542.604ZM700.181 670.434C664.883 670.434 636.14 641.691 636.14 606.393C636.14 571.095 664.883 542.604 700.181 542.604C735.479 542.604 763.97 571.095 763.97 606.393C763.97 641.691 735.479 670.434 700.181 670.434ZM700.181 575.885C683.288 575.885 669.673 589.5 669.673 606.393C669.673 623.286 683.288 636.901 700.181 636.901C716.822 636.901 730.689 623.286 730.689 606.393C730.689 589.5 716.822 575.885 700.181 575.885ZM685.305 517.139L718.839 482.093L729.428 493.691L691.861 524.199L685.305 517.139Z"/>
</mask>
<path d="M338.579 527.728H314.374C309.079 527.728 304.793 532.267 304.793 537.562V543.361H334.04L330.258 576.894H304.793V669.426H271.26V576.894H259.914V543.361H271.26V535.04C271.26 516.383 286.388 501.255 305.045 501.255H338.579V527.728ZM398.806 670.434C363.508 670.434 334.765 641.691 334.765 606.393C334.765 571.095 363.508 542.604 398.806 542.604C434.105 542.604 462.595 571.095 462.595 606.393C462.595 641.691 434.105 670.434 398.806 670.434ZM398.806 575.885C381.914 575.885 368.299 589.5 368.299 606.393C368.299 623.286 381.914 636.901 398.806 636.901C415.447 636.901 429.314 623.286 429.314 606.393C429.314 589.5 415.447 575.885 398.806 575.885ZM533.324 542.604C538.114 542.604 542.905 543.108 547.443 544.369L544.67 578.911C541.392 576.894 537.358 575.885 533.324 575.885C520.213 575.885 509.624 586.475 509.624 599.586V669.426H476.342V543.361L509.624 547.647C516.935 544.369 525.004 542.604 533.324 542.604ZM618.27 542.604C623.061 542.604 627.851 543.108 632.389 544.369L629.616 578.911C626.338 576.894 622.304 575.885 618.27 575.885C605.159 575.885 594.57 586.475 594.57 599.586V669.426H561.289V543.361L594.57 547.647C601.882 544.369 609.95 542.604 618.27 542.604ZM700.181 670.434C664.883 670.434 636.14 641.691 636.14 606.393C636.14 571.095 664.883 542.604 700.181 542.604C735.479 542.604 763.97 571.095 763.97 606.393C763.97 641.691 735.479 670.434 700.181 670.434ZM700.181 575.885C683.288 575.885 669.673 589.5 669.673 606.393C669.673 623.286 683.288 636.901 700.181 636.901C716.822 636.901 730.689 623.286 730.689 606.393C730.689 589.5 716.822 575.885 700.181 575.885ZM685.305 517.139L718.839 482.093L729.428 493.691L691.861 524.199L685.305 517.139Z" fill="#F5006A"/>
<path d="M338.579 527.728V543.763H354.613V527.728H338.579ZM304.793 543.361H288.759V559.395H304.793V543.361ZM334.04 543.361L349.974 545.158L351.985 527.326H334.04V543.361ZM330.258 576.894V592.928H344.586L346.192 578.691L330.258 576.894ZM304.793 576.894V560.86H288.759V576.894H304.793ZM304.793 669.426V685.46H320.828V669.426H304.793ZM271.26 669.426H255.226V685.46H271.26V669.426ZM271.26 576.894H287.294V560.86H271.26V576.894ZM259.914 576.894H243.88V592.928H259.914V576.894ZM259.914 543.361V527.326H243.88V543.361H259.914ZM271.26 543.361V559.395H287.294V543.361H271.26ZM338.579 501.255H354.613V485.22H338.579V501.255ZM338.579 511.694H314.374V543.763H338.579V511.694ZM314.374 511.694C299.689 511.694 288.759 523.956 288.759 537.562H320.828C320.828 540.578 318.47 543.763 314.374 543.763V511.694ZM288.759 537.562V543.361H320.828V537.562H288.759ZM304.793 559.395H334.04V527.326H304.793V559.395ZM318.107 541.564L314.325 575.097L346.192 578.691L349.974 545.158L318.107 541.564ZM330.258 560.86H304.793V592.928H330.258V560.86ZM288.759 576.894V669.426H320.828V576.894H288.759ZM304.793 653.391H271.26V685.46H304.793V653.391ZM287.294 669.426V576.894H255.226V669.426H287.294ZM271.26 560.86H259.914V592.928H271.26V560.86ZM275.948 576.894V543.361H243.88V576.894H275.948ZM259.914 559.395H271.26V527.326H259.914V559.395ZM287.294 543.361V535.04H255.226V543.361H287.294ZM287.294 535.04C287.294 525.238 295.243 517.289 305.045 517.289V485.22C277.532 485.22 255.226 507.527 255.226 535.04H287.294ZM305.045 517.289H338.579V485.22H305.045V517.289ZM322.544 501.255V527.728H354.613V501.255H322.544ZM398.806 654.4C372.364 654.4 350.8 632.836 350.8 606.393H318.731C318.731 650.547 354.653 686.469 398.806 686.469V654.4ZM350.8 606.393C350.8 580.033 372.281 558.639 398.806 558.639V526.57C354.735 526.57 318.731 562.157 318.731 606.393H350.8ZM398.806 558.639C425.249 558.639 446.561 579.95 446.561 606.393H478.63C478.63 562.239 442.96 526.57 398.806 526.57V558.639ZM446.561 606.393C446.561 632.918 425.167 654.4 398.806 654.4V686.469C443.042 686.469 478.63 650.464 478.63 606.393H446.561ZM398.806 559.851C373.058 559.851 352.264 580.645 352.264 606.393H384.333C384.333 598.356 390.769 591.92 398.806 591.92V559.851ZM352.264 606.393C352.264 632.141 373.058 652.935 398.806 652.935V620.867C390.769 620.867 384.333 614.43 384.333 606.393H352.264ZM398.806 652.935C424.216 652.935 445.349 632.227 445.349 606.393H413.28C413.28 614.344 406.678 620.867 398.806 620.867V652.935ZM445.349 606.393C445.349 580.559 424.216 559.851 398.806 559.851V591.92C406.678 591.92 413.28 598.442 413.28 606.393H445.349ZM547.443 544.369L563.426 545.652L564.485 532.462L551.735 528.92L547.443 544.369ZM544.67 578.911L536.266 592.567L558.558 606.285L560.653 580.194L544.67 578.911ZM509.624 669.426V685.46H525.658V669.426H509.624ZM476.342 669.426H460.308V685.46H476.342V669.426ZM476.342 543.361L478.391 527.458L460.308 525.129V543.361H476.342ZM509.624 547.647L507.576 563.55L512.058 564.127L516.183 562.278L509.624 547.647ZM533.324 558.639C537.031 558.639 540.325 559.033 543.152 559.818L551.735 528.92C545.485 527.184 539.198 526.57 533.324 526.57V558.639ZM531.46 543.086L528.687 577.628L560.653 580.194L563.426 545.652L531.46 543.086ZM553.073 565.255C546.916 561.466 539.882 559.851 533.324 559.851V591.92C534.834 591.92 535.869 592.322 536.266 592.567L553.073 565.255ZM533.324 559.851C511.358 559.851 493.589 577.619 493.589 599.586H525.658C525.658 595.33 529.069 591.92 533.324 591.92V559.851ZM493.589 599.586V669.426H525.658V599.586H493.589ZM509.624 653.391H476.342V685.46H509.624V653.391ZM492.377 669.426V543.361H460.308V669.426H492.377ZM474.294 559.264L507.576 563.55L511.672 531.744L478.391 527.458L474.294 559.264ZM516.183 562.278C521.439 559.922 527.273 558.639 533.324 558.639V526.57C522.734 526.57 512.432 528.816 503.065 533.015L516.183 562.278ZM632.389 544.369L648.372 545.652L649.432 532.462L636.681 528.92L632.389 544.369ZM629.616 578.911L621.212 592.567L643.504 606.285L645.599 580.194L629.616 578.911ZM594.57 669.426V685.46H610.604V669.426H594.57ZM561.289 669.426H545.254V685.46H561.289V669.426ZM561.289 543.361L563.337 527.458L545.254 525.129V543.361H561.289ZM594.57 547.647L592.522 563.55L597.005 564.127L601.129 562.278L594.57 547.647ZM618.27 558.639C621.977 558.639 625.271 559.033 628.098 559.818L636.681 528.92C630.431 527.184 624.144 526.57 618.27 526.57V558.639ZM616.407 543.086L613.633 577.628L645.599 580.194L648.372 545.652L616.407 543.086ZM638.02 565.255C631.862 561.466 624.828 559.851 618.27 559.851V591.92C619.781 591.92 620.815 592.322 621.212 592.567L638.02 565.255ZM618.27 559.851C596.304 559.851 578.536 577.619 578.536 599.586H610.604C610.604 595.33 614.015 591.92 618.27 591.92V559.851ZM578.536 599.586V669.426H610.604V599.586H578.536ZM594.57 653.391H561.289V685.46H594.57V653.391ZM577.323 669.426V543.361H545.254V669.426H577.323ZM559.241 559.264L592.522 563.55L596.618 531.744L563.337 527.458L559.241 559.264ZM601.129 562.278C606.385 559.922 612.219 558.639 618.27 558.639V526.57C607.681 526.57 597.378 528.816 588.011 533.015L601.129 562.278ZM685.305 517.139L673.72 506.054L663.271 516.974L673.555 528.05L685.305 517.139ZM718.839 482.093L730.68 471.281L719.113 458.613L707.253 471.008L718.839 482.093ZM729.428 493.691L739.536 506.138L752.726 495.427L741.269 482.879L729.428 493.691ZM691.861 524.199L680.111 535.109L690.321 546.105L701.969 536.646L691.861 524.199ZM700.181 654.4C673.738 654.4 652.174 632.836 652.174 606.393H620.106C620.106 650.547 656.027 686.469 700.181 686.469V654.4ZM652.174 606.393C652.174 580.033 673.656 558.639 700.181 558.639V526.57C656.11 526.57 620.106 562.157 620.106 606.393H652.174ZM700.181 558.639C726.624 558.639 747.936 579.95 747.936 606.393H780.004C780.004 562.239 744.335 526.57 700.181 526.57V558.639ZM747.936 606.393C747.936 632.918 726.541 654.4 700.181 654.4V686.469C744.417 686.469 780.004 650.464 780.004 606.393H747.936ZM700.181 559.851C674.433 559.851 653.639 580.645 653.639 606.393H685.708C685.708 598.356 692.144 591.92 700.181 591.92V559.851ZM653.639 606.393C653.639 632.141 674.433 652.935 700.181 652.935V620.867C692.144 620.867 685.708 614.43 685.708 606.393H653.639ZM700.181 652.935C725.591 652.935 746.723 632.227 746.723 606.393H714.654C714.654 614.344 708.052 620.867 700.181 620.867V652.935ZM746.723 606.393C746.723 580.559 725.591 559.851 700.181 559.851V591.92C708.052 591.92 714.654 598.442 714.654 606.393H746.723ZM696.891 528.224L730.424 493.178L707.253 471.008L673.72 506.054L696.891 528.224ZM706.998 492.904L717.587 504.502L741.269 482.879L730.68 471.281L706.998 492.904ZM719.32 481.244L681.753 511.752L701.969 536.646L739.536 506.138L719.32 481.244ZM703.611 513.288L697.055 506.228L673.555 528.05L680.111 535.109L703.611 513.288Z" fill="#380478" mask="url(#path-20-outside-2_330_2435)"/>
<path d="M259.36 610.884C289.966 571.993 283.013 639.542 268.966 669.34C206.015 666.952 195.086 660.358 219.937 639.032C192.704 628.197 192.81 622.913 218.521 615.287C182.253 560.68 194.922 543.382 236.23 603.081C253.583 574.697 256.814 583.332 259.36 610.884Z" fill="#6925BD"/>
<path d="M268.485 664.545C266.496 661.796 264.711 659.33 263.035 657.014M203.761 575.124C203.761 575.124 216.671 592.961 224.944 604.389M224.944 604.389C225.395 599.897 226.1 592.886 226.1 592.886M224.944 604.389C233.446 616.135 246.715 634.467 246.715 634.467M224.944 604.389L215.335 602.12M246.715 634.467L249.439 614.005M246.715 634.467L232.301 631.063M246.715 634.467C253.227 643.464 257.548 649.434 263.035 657.014M250.748 604.169L249.439 614.005M249.439 614.005L260.357 606.438M217.888 627.659L232.301 631.063M232.301 631.063L226.293 621.805M263.035 657.014C255.029 655.124 242.533 652.173 242.533 652.173M263.035 657.014C264.151 648.274 264.946 642.055 265.841 635.046M233.663 650.078L242.533 652.173M242.533 652.173L239.669 644.473M267.389 622.926C266.805 627.498 266.309 631.38 265.841 635.046M274.082 627.628L265.841 635.046" stroke="#380478" stroke-width="3"/>
<path d="M418.085 205.623H419.256V212.699H414.893C413.297 212.699 411.86 211.901 411.009 210.731C408.881 212.114 406.38 212.912 403.667 212.912C396.218 212.912 390.206 206.847 390.206 199.398C390.206 192.002 396.218 185.937 403.667 185.937C406.008 185.937 408.189 186.522 410.105 187.586L417.181 186.15V204.772C417.181 205.25 417.553 205.623 418.085 205.623ZM403.667 205.836C407.231 205.836 410.105 202.963 410.105 199.398C410.105 195.886 407.231 193.013 403.667 193.013C400.155 193.013 397.229 195.886 397.229 199.398C397.229 202.963 400.155 205.836 403.667 205.836ZM403.614 181.734C393.877 181.734 385.949 189.661 385.949 199.398V212.699H378.926V186.15H382.757C387.173 179.286 394.888 174.657 403.614 174.657C407.019 174.657 410.264 175.349 413.19 176.626L409.998 182.957C408.03 182.159 405.848 181.734 403.614 181.734ZM435.722 185.937C443.17 185.937 449.183 191.949 449.183 199.398C449.183 206.847 443.17 212.912 435.722 212.912C433.381 212.912 431.199 212.274 429.284 211.263L422.208 212.699V177.211H429.284V187.533C431.199 186.522 433.381 185.937 435.722 185.937ZM435.722 205.836C439.233 205.836 442.16 202.963 442.16 199.398C442.16 195.833 439.233 192.96 435.722 192.96C432.157 192.96 429.284 195.833 429.284 199.398C429.284 202.963 432.157 205.836 435.722 205.836ZM452.084 212.699V186.097H459.107V212.699H452.084ZM455.595 184.234C453.626 184.234 452.084 182.691 452.084 180.723C452.084 178.754 453.626 177.211 455.595 177.211C457.564 177.211 459.107 178.754 459.107 180.723C459.107 182.691 457.564 184.234 455.595 184.234ZM477.331 209.667C475.522 212.061 473.021 212.912 470.467 212.912C467.435 212.912 464.295 211.688 462.008 210.411L465.785 204.452C467.222 205.25 469.137 206.102 470.414 206.102C470.999 206.102 471.478 205.942 471.691 205.463C471.744 205.357 471.744 205.25 471.744 205.197C471.744 204.293 470.095 203.229 468.765 202.537L468.605 202.484C465.679 200.622 462.806 199.291 462.114 194.929C462.061 194.503 462.008 194.077 462.008 193.545C462.008 192.215 462.38 190.513 463.763 188.81C465.306 187.001 467.328 185.884 469.616 185.724C469.829 185.724 470.095 185.671 470.308 185.671C474.085 185.671 477.544 188.012 478.874 189.129L474.192 194.397C473.074 193.599 471.585 192.747 470.467 192.747H470.308C470.042 192.747 469.51 192.8 469.243 193.332C469.137 193.545 469.084 193.758 469.084 193.918C469.084 194.982 470.786 195.674 471.904 196.206C474.511 197.536 478.076 199.558 478.767 203.548C478.874 204.027 478.927 204.559 478.927 205.144C478.927 206.421 478.608 208.017 477.331 209.667ZM499.073 203.388L505.245 206.793C502.851 210.465 498.701 212.912 493.966 212.912C486.57 212.912 480.505 206.847 480.505 199.398C480.505 191.949 486.57 185.937 493.966 185.937C498.169 185.937 501.946 187.852 504.447 190.885L499.286 195.727C498.116 194.077 496.2 192.96 493.966 192.96C490.454 192.96 487.581 195.833 487.581 199.398C487.581 202.963 490.454 205.836 493.966 205.836C496.041 205.836 497.85 204.878 499.073 203.388ZM534.675 205.623H535.846V212.699H531.483C529.887 212.699 528.45 211.901 527.599 210.677C525.471 212.061 522.97 212.912 520.257 212.912C512.808 212.912 506.796 206.847 506.796 199.398C506.796 191.949 512.808 185.937 520.257 185.937C522.598 185.937 524.779 186.522 526.694 187.533L533.771 186.097V204.718C533.771 205.197 534.143 205.623 534.675 205.623ZM520.257 205.836C523.821 205.836 526.694 202.963 526.694 199.398C526.694 195.833 523.821 192.96 520.257 192.96C516.745 192.96 513.819 195.833 513.819 199.398C513.819 202.963 516.745 205.836 520.257 205.836ZM565.279 205.623H566.449V212.699H562.086C560.49 212.699 559.107 211.901 558.202 210.677C556.127 212.061 553.573 212.912 550.86 212.912C543.464 212.912 537.399 206.847 537.399 199.398C537.399 191.949 543.464 185.937 550.86 185.937C553.201 185.937 555.382 186.522 557.298 187.533V177.211H564.374V204.718C564.374 205.197 564.8 205.623 565.279 205.623ZM550.86 205.836C554.425 205.836 557.298 202.963 557.298 199.398C557.298 195.833 554.425 192.96 550.86 192.96C547.348 192.96 544.475 195.833 544.475 199.398C544.475 202.963 547.348 205.836 550.86 205.836ZM581.517 212.912C574.068 212.912 568.002 206.847 568.002 199.398C568.002 191.949 574.068 185.937 581.517 185.937C588.965 185.937 594.978 191.949 594.978 199.398C594.978 206.847 588.965 212.912 581.517 212.912ZM581.517 192.96C577.952 192.96 575.079 195.833 575.079 199.398C575.079 202.963 577.952 205.836 581.517 205.836C585.028 205.836 587.954 202.963 587.954 199.398C587.954 195.833 585.028 192.96 581.517 192.96Z" fill="white"/>
<g clip-path="url(#clip1_330_2435)">
<path d="M612.671 215.773C618.79 212.899 623.014 209.808 624.476 208.669C633.52 201.782 647.329 187.194 644.621 175.264L644.619 175.254C644.293 173.784 643.477 170.107 640.235 167.997C637.865 166.445 635.264 166.43 633.726 166.593C633.246 166.644 632.828 166.923 632.536 167.307C629.628 171.139 625.02 173.637 619.873 173.637C616.895 173.637 614.079 172.823 611.696 171.359C610.775 170.763 609.909 170.112 609.097 169.407C608.566 168.907 608.108 168.407 607.721 167.939C607.254 167.372 606.513 167.077 605.804 167.271C602.578 168.157 598.434 169.731 594.204 172.715C592.388 174.021 590.813 175.366 589.511 176.649C589.421 176.738 589.53 176.874 589.638 176.807L589.665 176.79C590.183 176.479 590.321 176.396 591.221 176.025C591.224 176.024 591.228 176.023 591.231 176.021C591.273 176.007 591.589 175.903 592.093 175.752C602.977 171.956 617.49 178.572 620.74 186.435C624.458 195.372 615.93 211.982 595.717 220.852C595.55 220.926 595.617 221.181 595.797 221.149C600.239 220.367 606.163 218.834 612.671 215.773Z" fill="#F5006A"/>
<path d="M629.707 210.021C629.624 209.958 629.51 209.96 629.427 210.024C627.998 211.13 626.364 212.282 624.476 213.332C622.037 214.704 618.546 215.973 616.23 216.743C615.963 216.832 616.06 217.349 616.342 217.336C619.168 217.204 623.826 217.173 627.508 218.05C631.072 218.866 633.966 220.113 636.144 221.251C636.313 221.339 636.511 221.199 636.478 221.012C636.221 219.562 635.66 217.538 634.44 215.339C632.875 212.675 630.959 210.967 629.707 210.021Z" fill="#FFC72E"/>
<path d="M612.887 165.666C614.458 167.835 617.003 169.245 619.873 169.245C622.852 169.245 625.451 167.781 626.967 165.503C627.942 164.093 628.483 162.412 628.483 160.622C628.538 155.85 624.639 152 619.873 152C615.108 152 611.263 155.85 611.263 160.622C611.263 162.521 611.858 164.256 612.887 165.666Z" fill="#FFC72E"/>
<path d="M597.636 214.275C596.96 214.879 596.284 215.482 595.552 216.085C595.484 216.141 595.559 216.305 595.642 216.277C612.498 209.228 619.647 195.522 616.614 188.211C614.014 181.902 602.375 176.573 593.665 179.575C592.712 179.924 591.959 180.336 591.266 180.727C591.088 180.847 591.177 181.133 591.392 181.127C594.265 181.044 603.14 181.261 606.951 186.906C609.205 190.213 609.508 195.217 607.731 200.482C606.128 205.181 602.792 210.142 597.636 214.275Z" fill="#FFC72E"/>
</g>
</g>
<defs>
<clipPath id="clip0_330_2435">
<rect width="1021" height="1034" fill="white"/>
</clipPath>
<clipPath id="clip1_330_2435">
<rect width="56.7527" height="69.5221" fill="white" transform="translate(588.247 152)"/>
</clipPath>
</defs>
</svg>
