<svg width="10" height="15" viewBox="0 0 10 15" fill="none" xmlns="http://www.w3.org/2000/svg">
<path d="M9.66634 5.4987C9.66634 4.88586 9.54563 4.27903 9.31111 3.71284C9.07659 3.14666 8.73285 2.63221 8.29951 2.19887C7.86617 1.76553 7.35172 1.42178 6.78553 1.18726C6.21934 0.952738 5.61251 0.832031 4.99967 0.832031C4.38684 0.832031 3.78 0.952738 3.21382 1.18726C2.64763 1.42178 2.13318 1.76553 1.69984 2.19887C1.2665 2.63221 0.922758 3.14666 0.688237 3.71284C0.453715 4.27903 0.333008 4.88586 0.333008 5.4987C0.333008 6.42336 0.605674 7.28336 1.06967 8.0087H1.06434L4.99967 14.1654L8.93501 8.0087H8.93034C9.41092 7.25975 9.66638 6.38857 9.66634 5.4987ZM4.99967 7.4987C4.46924 7.4987 3.96053 7.28798 3.58546 6.91291C3.21039 6.53784 2.99967 6.02913 2.99967 5.4987C2.99967 4.96826 3.21039 4.45956 3.58546 4.08448C3.96053 3.70941 4.46924 3.4987 4.99967 3.4987C5.53011 3.4987 6.03882 3.70941 6.41389 4.08448C6.78896 4.45956 6.99967 4.96826 6.99967 5.4987C6.99967 6.02913 6.78896 6.53784 6.41389 6.91291C6.03882 7.28798 5.53011 7.4987 4.99967 7.4987Z" fill="#F5006A"/>
</svg>
