<svg width="307" height="79" viewBox="0 0 307 79" fill="none" xmlns="http://www.w3.org/2000/svg">
<path d="M47.946 60.3605H49.2795V68.3832H44.3092C42.4907 68.3832 40.8541 67.4784 39.8843 66.1513C37.4598 67.7196 34.6109 68.6244 31.5195 68.6244C23.0336 68.6244 16.1842 61.7479 16.1842 53.303C16.1842 44.9184 23.0336 38.0419 31.5195 38.0419C34.1866 38.0419 36.6717 38.7054 38.8539 39.9118L46.9156 38.2832V59.3954C46.9156 59.9383 47.3398 60.3605 47.946 60.3605ZM31.5195 60.6018C35.5807 60.6018 38.8539 57.3445 38.8539 53.303C38.8539 49.3219 35.5807 46.0645 31.5195 46.0645C27.519 46.0645 24.1853 49.3219 24.1853 53.303C24.1853 57.3445 27.519 60.6018 31.5195 60.6018ZM31.4589 33.2765C20.3665 33.2765 11.335 42.2644 11.335 53.303V68.3832H3.33398V38.2832H7.69818C12.7292 30.5018 21.5182 25.2539 31.4589 25.2539C35.3382 25.2539 39.0357 26.0381 42.3695 27.4858L38.7326 34.6639C36.4899 33.7591 34.0047 33.2765 31.4589 33.2765ZM68.0381 38.0419C76.524 38.0419 83.3735 44.8581 83.3735 53.303C83.3735 61.7479 76.524 68.6244 68.0381 68.6244C65.3711 68.6244 62.886 67.9006 60.7039 66.7545L52.6421 68.3832V28.1493H60.7039V39.8515C62.886 38.7054 65.3711 38.0419 68.0381 38.0419ZM68.0381 60.6018C72.0384 60.6018 75.3726 57.3445 75.3726 53.303C75.3726 49.2615 72.0384 46.0042 68.0381 46.0042C63.977 46.0042 60.7039 49.2615 60.7039 53.303C60.7039 57.3445 63.977 60.6018 68.0381 60.6018ZM86.6782 68.3832V38.2228H94.6791V68.3832H86.6782ZM90.679 36.1117C88.4366 36.1117 86.6782 34.3623 86.6782 32.1305C86.6782 29.8986 88.4366 28.1493 90.679 28.1493C92.9214 28.1493 94.6791 29.8986 94.6791 32.1305C94.6791 34.3623 92.9214 36.1117 90.679 36.1117ZM115.441 64.9449C113.38 67.6593 110.531 68.6244 107.622 68.6244C104.167 68.6244 100.591 67.2371 97.9845 65.7894L102.288 59.0335C103.924 59.9383 106.107 60.9034 107.561 60.9034C108.228 60.9034 108.774 60.7225 109.016 60.1795C109.077 60.0589 109.077 59.9383 109.077 59.8779C109.077 58.8525 107.198 57.6461 105.683 56.8619L105.501 56.8016C102.167 54.6904 98.8935 53.1824 98.1053 48.2361C98.0449 47.7535 97.9845 47.2709 97.9845 46.6677C97.9845 45.1597 98.4088 43.2295 99.9846 41.2992C101.742 39.2483 104.046 37.9816 106.652 37.8006C106.895 37.8006 107.198 37.7403 107.44 37.7403C111.744 37.7403 115.684 40.3944 117.199 41.6612L111.865 47.6329C110.592 46.7281 108.895 45.7629 107.622 45.7629H107.44C107.137 45.7629 106.531 45.8233 106.228 46.4265C106.107 46.6677 106.046 46.909 106.046 47.09C106.046 48.2964 107.986 49.0806 109.258 49.6838C112.229 51.1918 116.29 53.484 117.077 58.008C117.199 58.5509 117.259 59.1541 117.259 59.8176C117.259 61.2653 116.896 63.0749 115.441 64.9449ZM140.211 57.8271L147.243 61.6876C144.515 65.8497 139.787 68.6244 134.392 68.6244C125.967 68.6244 119.057 61.7479 119.057 53.303C119.057 44.8581 125.967 38.0419 134.392 38.0419C139.181 38.0419 143.484 40.2134 146.334 43.6517L140.454 49.1408C139.12 47.2709 136.938 46.0042 134.392 46.0042C130.392 46.0042 127.119 49.2615 127.119 53.303C127.119 57.3445 130.392 60.6018 134.392 60.6018C136.756 60.6018 138.818 59.516 140.211 57.8271ZM180.771 60.3605H182.105V68.3832H177.134C175.315 68.3832 173.679 67.4784 172.709 66.091C170.285 67.6593 167.436 68.6244 164.344 68.6244C155.859 68.6244 149.009 61.7479 149.009 53.303C149.009 44.8581 155.859 38.0419 164.344 38.0419C167.012 38.0419 169.497 38.7054 171.679 39.8515L179.741 38.2228V59.3351C179.741 59.8779 180.165 60.3605 180.771 60.3605ZM164.344 60.6018C168.406 60.6018 171.679 57.3445 171.679 53.303C171.679 49.2615 168.406 46.0042 164.344 46.0042C160.344 46.0042 157.01 49.2615 157.01 53.303C157.01 57.3445 160.344 60.6018 164.344 60.6018ZM215.636 60.3605H216.969V68.3832H211.999C210.181 68.3832 208.605 67.4784 207.574 66.091C205.21 67.6593 202.301 68.6244 199.209 68.6244C190.784 68.6244 183.874 61.7479 183.874 53.303C183.874 44.8581 190.784 38.0419 199.209 38.0419C201.876 38.0419 204.362 38.7054 206.544 39.8515V28.1493H214.606V59.3351C214.606 59.8779 215.091 60.3605 215.636 60.3605ZM199.209 60.6018C203.271 60.6018 206.544 57.3445 206.544 53.303C206.544 49.2615 203.271 46.0042 199.209 46.0042C195.209 46.0042 191.936 49.2615 191.936 53.303C191.936 57.3445 195.209 60.6018 199.209 60.6018ZM234.135 68.6244C225.649 68.6244 218.739 61.7479 218.739 53.303C218.739 44.8581 225.649 38.0419 234.135 38.0419C242.621 38.0419 249.47 44.8581 249.47 53.303C249.47 61.7479 242.621 68.6244 234.135 68.6244ZM234.135 46.0042C230.074 46.0042 226.801 49.2615 226.801 53.303C226.801 57.3445 230.074 60.6018 234.135 60.6018C238.136 60.6018 241.469 57.3445 241.469 53.303C241.469 49.2615 238.136 46.0042 234.135 46.0042Z" fill="#340074"/>
<mask id="mask0_341_13020" style="mask-type:luminance" maskUnits="userSpaceOnUse" x="241" y="0" width="66" height="79">
<path d="M306.458 0H241.803V78.8196H306.458V0Z" fill="white"/>
</mask>
<g mask="url(#mask0_341_13020)">
<path d="M269.627 72.3025C276.598 69.0441 281.41 65.5396 283.076 64.2486C293.379 56.4404 309.111 39.9018 306.026 26.3758L306.024 26.3651C305.652 24.6978 304.723 20.5299 301.029 18.1373C298.329 16.3779 295.366 16.3606 293.613 16.5459C293.067 16.6036 292.591 16.9196 292.259 17.3551C288.945 21.6995 283.695 24.5314 277.832 24.5314C274.439 24.5314 271.231 23.6092 268.516 21.9491C267.467 21.2729 266.48 20.5351 265.554 19.7358C264.951 19.1691 264.428 18.6025 263.988 18.0711C263.455 17.4281 262.612 17.0941 261.804 17.3146C258.129 18.318 253.407 20.103 248.589 23.4862C246.52 24.9665 244.725 26.4922 243.243 27.9461C243.139 28.0474 243.264 28.2014 243.387 28.125L243.418 28.1063C244.008 27.7536 244.164 27.66 245.19 27.2389C245.193 27.2374 245.198 27.236 245.201 27.2347C245.25 27.2188 245.609 27.1005 246.183 26.9292C258.583 22.6254 275.117 30.1262 278.819 39.0411C283.056 49.1737 273.34 68.0039 250.312 78.0611C250.122 78.1443 250.199 78.433 250.403 78.3973C255.464 77.5109 262.213 75.7729 269.627 72.3025Z" fill="#F5006A"/>
<path d="M289.036 65.7826C288.941 65.7115 288.811 65.7136 288.717 65.7858C287.089 67.0398 285.227 68.3459 283.076 69.5368C280.298 71.0918 276.321 72.5306 273.683 73.4038C273.377 73.5052 273.488 74.0904 273.809 74.075C277.029 73.9261 282.337 73.8904 286.531 74.8859C290.591 75.8109 293.888 77.2245 296.369 78.5143C296.562 78.6143 296.787 78.4556 296.749 78.2431C296.456 76.5995 295.818 74.305 294.428 71.8119C292.645 68.7915 290.462 66.8551 289.036 65.7826Z" fill="#FFC72E"/>
<path d="M269.874 15.4934C271.663 17.9526 274.562 19.5512 277.833 19.5512C281.226 19.5512 284.187 17.8912 285.914 15.3089C287.025 13.7104 287.642 11.8045 287.642 9.77559C287.704 4.3652 283.262 0 277.833 0C272.404 0 268.023 4.3652 268.023 9.77559C268.023 11.9275 268.702 13.8948 269.874 15.4934Z" fill="#FFC72E"/>
<path d="M252.497 70.6051C251.728 71.2889 250.958 71.9726 250.124 72.6563C250.047 72.7199 250.131 72.9066 250.227 72.8745C269.43 64.8829 277.574 49.3434 274.119 41.0558C271.157 33.9027 257.897 27.8609 247.975 31.2647C246.889 31.6594 246.031 32.1267 245.241 32.5707C245.038 32.7063 245.14 33.0312 245.384 33.0241C248.658 32.9302 258.768 33.176 263.11 39.5758C265.677 43.325 266.023 48.9981 263.999 54.9672C262.173 60.2951 258.372 65.9188 252.497 70.6051Z" fill="#FFC72E"/>
</g>
</svg>
